{"title":"The Kettering Incident - S01E01-E02 - Anna &amp; The Lights","uid":15215573,"size":2417761881,"categoryP":"video","categoryS":"tv_shows","magnet":"?xt=urn:btih:e29a1f481318edd56e14371bf1cdd62c186d55a0&amp;dn=The+Kettering+Incident+-+S01E01-E02+-+Anna+%26amp%3B+The+Lights&amp;tr=udp%3A%2F%2Ftracker.leechers-paradise.org%3A6969&amp;tr=udp%3A%2F%2Fzer0day.ch%3A1337&amp;tr=udp%3A%2F%2Fopen.demonii.com%3A1337&amp;tr=udp%3A%2F%2Ftracker.coppersurfer.tk%3A6969&amp;tr=udp%3A%2F%2Fexodus.desync.com%3A6969","seeders":11,"leechers":2,"uploader":"Bullrout","files":1,"time":1467690136,"description":"The Kettering Incident - S01E01-E02 - Anna &amp; The Lights\r\n\r\nWhen two girls disappear in the Tasmanian wilds 15 years apart, Dr Anna Macy finds herself linked to both cases. Anna must confront the events of her past and the truth of what is happening in Kettering forest.\r\n\r\nComplete name                            : The Kettering Incident - S01E01-E02 - Anna &amp; The Lights.mkv\r\nFormat                                   : Matroska\r\nFormat version                           : Version 4 / Version 2\r\nFile size                                : 2.25 GiB\r\nDuration                                 : 1h 37mn\r\nOverall bit rate mode                    : Variable\r\nOverall bit rate                         : 3 313 Kbps\r\nEncoded date                             : UTC 2016-07-04 15:33:31\r\nWriting application                      : mkvmerge v9.2.0 ('Photograph') 64bit\r\nWriting library                          : libebml v1.3.3 + libmatroska v1.4.4\r\n\r\nVideo\r\nID                                       : 2\r\nFormat                                   : AVC\r\nFormat/Info                              : Advanced Video Codec\r\nFormat profile                           :   \r\nFormat settings, CABAC                   : Yes\r\nFormat settings, ReFrames                : 3 frames\r\nCodec ID                                 : V_MPEG4/ISO/AVC\r\nDuration                                 : 1h 37mn\r\nBit rate mode                            : Variable\r\nBit rate                                 : 2 927 Kbps\r\nMaximum bit rate                         : 3 000 Kbps\r\nWidth                                    : 1 280 pixels\r\nHeight                                   : 688 pixels\r\nDisplay aspect ratio                     : 1.85:1\r\nFrame rate mode                          : Constant\r\nFrame rate                               : 25.000 fps\r\nStandard                                 : PAL\r\nColor space                              : YUV\r\nChroma subsampling                       : 4:2:0\r\nBit depth                                : 8 bits\r\nScan type                                : Progressive\r\nBits/(Pixel*Frame)                       : 0.133\r\nStream size                              : 1.99 GiB (88%)\r\nWriting library                          : x264 core 112\r\nDefault                                  : Yes\r\nForced                                   : No\r\nColor range                              : Limited\r\nColor primaries                          : BT.709\r\nTransfer characteristics                 : BT.709\r\nMatrix coefficients                      : BT.709\r\n\r\nAudio\r\nID                                       : 1\r\nFormat                                   : AC-3\r\nFormat/Info                              : Audio Coding 3\r\nMode extension                           : CM (complete main)\r\nFormat settings, Endianness              : Big\r\nCodec ID                                 : A_AC3\r\nDuration                                 : 1h 37mn\r\nBit rate mode                            : Constant\r\nBit rate                                 : 384 Kbps\r\nChannel(s)                               : 6 channels\r\nChannel positions                        : Front: L C R, Side: L R, LFE\r\nSampling rate                            : 48.0 KHz\r\nFrame rate                               : 31.250 fps (1536 spf)\r\nCompression mode                         : Lossy\r\nStream size                              : 267 MiB (12%)\r\nDefault                                  : Yes\r\nForced                                   : No","torrent":{"xt":"urn:btih:e29a1f481318edd56e14371bf1cdd62c186d55a0","amp;dn":"The+Kettering+Incident+-+S01E01-E02+-+Anna+%26amp%3B+The+Lights","amp;tr":["udp%3A%2F%2Ftracker.leechers-paradise.org%3A6969","udp%3A%2F%2Fzer0day.ch%3A1337","udp%3A%2F%2Fopen.demonii.com%3A1337","udp%3A%2F%2Ftracker.coppersurfer.tk%3A6969","udp%3A%2F%2Fexodus.desync.com%3A6969"],"infoHash":"e29a1f481318edd56e14371bf1cdd62c186d55a0","infoHashBuffer":{"type":"Buffer","data":[226,154,31,72,19,24,237,213,110,20,55,27,241,205,214,44,24,109,85,160]},"announce":[],"urlList":[]}}